<svg t="1607563665197" class="icon" viewBox="0 0 1024 1024" version="1.1" xmlns="http://www.w3.org/2000/svg" p-id="5958" width="40" height="40"><path d="M768 678.4C608 844.8 512 832 512 832s-121.6-12.8-249.6-153.6C128 531.2 128 396.8 128 339.2 128 147.2 307.2 0 512 0c211.2 0 384 147.2 384 339.2 0 76.8 12.8 198.4-128 339.2zM512 256c-70.4 0-128 57.6-128 128s57.6 128 128 128 128-57.6 128-128-57.6-128-128-128z m0 640c140.8 0 192 25.6 192 64s-51.2 64-192 64-192-25.6-192-64c0-32 51.2-64 192-64z" fill="#19f6e3" p-id="5959"></path></svg>